<?xml version="1.0" ?><svg data-name="Layer 1" id="Layer_1" viewBox="0 0 272 272" xmlns="http://www.w3.org/2000/svg"><defs><style>.cls-1{fill:#000000;}</style></defs><title/><path class="cls-1" d="M185.15,120.87,142.85,253.79a3.18,3.18,0,0,1-6,.12L88,119.46a20.64,20.64,0,0,1-6.37,5.9l47.74,131.28a11.18,11.18,0,0,0,21.15-.43l41.39-130.07A20.22,20.22,0,0,1,185.15,120.87Z"/><path class="cls-1" d="M208.5,87.2C205.68,42.9,174.3,8,136,8S66.32,42.9,63.5,87.2A21.56,21.56,0,0,0,52,106.57C52,118.41,61,128,72,128a19.55,19.55,0,0,0,16-8.61,19.17,19.17,0,0,0,32,0,19.17,19.17,0,0,0,32,0,19.17,19.17,0,0,0,32,0A19.55,19.55,0,0,0,200,128c11,0,20-9.59,20-21.43A21.56,21.56,0,0,0,208.5,87.2ZM200,120a11.54,11.54,0,0,1-9.44-5.19L184,105.43l-6.56,9.38a11.18,11.18,0,0,1-18.89,0L152,105.43l-6.56,9.38a11.18,11.18,0,0,1-18.89,0L120,105.43l-6.56,9.38a11.18,11.18,0,0,1-18.89,0L88,105.43l-6.56,9.38A11.54,11.54,0,0,1,72,120c-6.62,0-12-6-12-13.43a13.62,13.62,0,0,1,7.1-12.23l4.09-2.06.29-4.57C74,47.5,102.39,16,136,16s62,31.5,64.52,71.71l.29,4.57,4.09,2.06a13.62,13.62,0,0,1,7.1,12.23C212,114,206.62,120,200,120Z"/></svg>